<svg width="192" height="77" viewBox="0 0 192 77" fill="none" xmlns="http://www.w3.org/2000/svg">
<path fill-rule="evenodd" clip-rule="evenodd" d="M158.071 14.3325C158.096 14.1849 158.125 14.0373 158.155 13.8932C158.368 12.8866 158.711 11.9298 159.164 11.037C159.753 9.87926 160.529 8.83353 161.453 7.93898C161.652 7.74513 161.968 7.74513 162.167 7.93898C163.09 8.83531 163.866 9.88282 164.454 11.0406C164.907 11.9316 165.249 12.8884 165.461 13.8932C165.491 14.039 165.519 14.1849 165.544 14.3307C165.601 14.6651 165.645 15.0047 165.672 15.3498C165.676 15.3942 165.679 15.4405 165.683 15.4849C165.755 15.4796 165.83 15.4742 165.901 15.4689C171.216 15.1275 174.532 17.1976 176.503 19.3068L184.592 29.7267C184.973 30.2158 184.87 30.9254 184.366 31.2864L176.432 36.9863C176.101 37.2246 175.666 37.2566 175.299 37.0823C169.49 34.3293 161.382 33.2729 149.047 38.1174C132.995 44.422 116.004 52.2258 116.004 52.2258C116.004 52.2258 93.9393 62.852 73.0734 67.476L74.6237 74.4955C85.593 72.0644 96.7274 68.0966 105.015 64.7976C109.183 63.1383 112.685 61.6267 115.152 60.5258C116.386 59.9745 117.364 59.5263 118.039 59.2115C118.376 59.055 118.639 58.9305 118.82 58.8452C118.858 58.8274 118.893 58.8114 118.923 58.7972C118.966 58.7776 119.002 58.7598 119.03 58.7456L119.041 58.7402H119.046C119.046 58.7402 119.046 58.7367 119.048 58.7367C119.078 58.7225 119.122 58.7029 119.181 58.6762C119.305 58.6193 119.492 58.534 119.735 58.4237C120.223 58.2014 120.941 57.8759 121.854 57.4651C123.679 56.6435 126.281 55.4804 129.381 54.1234C135.593 51.4024 143.76 47.9166 151.666 44.8115C162.497 40.5592 168.512 41.8201 172.227 43.5808C174.857 44.8275 178.08 44.6496 180.616 42.8285L188.55 37.1286C192.363 34.3898 193.139 29.0242 190.258 25.3144L181.967 14.6348L181.743 14.3947C179.372 11.8569 175.911 9.53246 171.257 8.63435C170.268 6.41841 168.867 4.43366 167.164 2.77793C164.18 -0.120934 159.441 -0.122713 156.455 2.7726C154.118 5.04011 152.355 7.91941 151.437 11.1597C146.971 12.7301 143.33 13.1498 140.205 12.9898C136.229 12.7852 132.578 11.6168 128.49 9.84725C127.082 9.23724 125.583 8.52409 123.986 7.76291C116.814 4.3483 107.684 0 96.0721 0C81.4624 0 71.2443 4.70399 62.6458 8.66103C62.2604 8.83887 61.8768 9.01494 61.4968 9.18922C52.7509 13.2014 45.6511 16.1518 35.2341 14.9425C29.7486 14.3058 26.6605 13.4308 22.7945 11.5688C19.5767 10.0198 15.97 7.87317 10.369 4.53681C8.39787 3.36304 6.17809 2.04165 3.64044 0.547761L0 6.74564C2.37073 8.1435 4.49639 9.40797 6.42493 10.5568C19.836 18.5438 23.6931 20.8416 34.4066 22.0847C47.3808 23.5911 56.2119 19.5309 65.4764 15.2733C74.0803 11.318 83.0571 7.19025 96.0721 7.19025C105.903 7.19025 113.276 10.6742 120.396 14.039C131.022 19.0614 141.082 23.8152 157.905 16.3137C157.905 15.6379 157.961 14.9763 158.071 14.3343V14.3325Z" fill="url(#paint0_radial_2888_1841)"/>
<path fill-rule="evenodd" clip-rule="evenodd" d="M94.5465 28.107C93.7225 25.948 91.9999 23.5328 88.7804 21.1142L93.0885 15.3627C97.1676 18.4269 99.8544 21.8736 101.254 25.5389C102.658 29.2203 102.678 32.8964 101.774 36.2363C100.107 42.3851 95.3242 47.3946 90.1724 49.7963C89.9015 49.9226 89.8287 50.2766 90.0465 50.4814C91.7575 52.09 94.9027 54.1484 99.1672 56.4572C108.65 61.5898 121.75 66.9749 129.999 70.3415L127.291 77C119.119 73.6654 105.642 68.1344 95.754 62.7831C90.9309 60.1724 86.454 57.3464 84.0265 54.588C82.8829 53.288 81.4391 51.1628 81.8689 48.5805C82.3341 45.7883 84.6267 44.3051 86.5606 43.5315C90.1797 42.082 93.7243 38.4896 94.8448 34.3547C95.3847 32.3628 95.3651 30.2536 94.5482 28.1088L94.5465 28.107Z" fill="url(#paint1_linear_2888_1841)"/>
<defs>
<radialGradient id="paint0_radial_2888_1841" cx="0" cy="0" r="1" gradientUnits="userSpaceOnUse" gradientTransform="translate(125.2 -2.91859e-06) rotate(135.062) scale(98.2471 253.59)">
<stop offset="0.5625" stop-color="#2C2A2A"/>
<stop offset="0.990797" stop-color="#2C2A2A" stop-opacity="0"/>
</radialGradient>
<linearGradient id="paint1_linear_2888_1841" x1="83.8625" y1="41.3251" x2="76.9609" y2="24.9579" gradientUnits="userSpaceOnUse">
<stop stop-color="#2C2A2A"/>
<stop offset="1" stop-color="#2C2A2A" stop-opacity="0"/>
</linearGradient>
</defs>
</svg>
