<svg xmlns="http://www.w3.org/2000/svg" width="512" height="512" viewBox="0 0 512 512"><circle cx="256" cy="256" r="256" fill="#8b0000"/><g transform="translate(51.2 51.2) scale(0.8)"><title>Sr. Dolores Foundation portrait</title><g transform="scale(0.4082934609250399)">
	<path d="M 597 13.607 C 533.824 18.010, 481.408 34.078, 435 63.267 C 396.278 87.622, 370.733 115.179, 350.282 154.655 C 337.670 179, 328.365 203.534, 306.155 271 C 288.526 324.551, 274.495 371.009, 245.601 471.500 C 238.169 497.350, 227.571 533.800, 222.051 552.500 C 216.531 571.200, 207.471 602.475, 201.918 622 C 189.228 666.621, 169.846 733.727, 161.338 762.500 C 146.118 813.970, 142.771 824.776, 140.523 829.708 L 138.149 834.917 115.824 846.064 C 83.166 862.371, 77 866.269, 77 870.606 C 77 876.462, 89.052 903.195, 99.494 920.500 C 111.291 940.051, 129.275 965.360, 145.329 985 C 155.327 997.233, 213.008 1054.512, 229.500 1068.585 C 325.207 1150.256, 430.673 1198.625, 545.500 1213.510 C 591.285 1219.445, 645.013 1219.447, 689.898 1213.516 C 812.967 1197.255, 934.627 1141.636, 1031 1057.577 C 1087.799 1008.035, 1140.809 942.739, 1168.519 888.186 C 1172.129 881.078, 1175.337 873.700, 1175.647 871.790 C 1176.151 868.681, 1175.808 867.984, 1172.355 865.110 C 1168.859 862.200, 1145.011 850.015, 1118.168 837.422 C 1105.376 831.422, 1105.515 831.635, 1096.011 803.500 C 1088.445 781.102, 1069.960 724.474, 1066.959 714.500 C 1065.966 711.200, 1062.692 700.625, 1059.685 691 C 1050.171 660.557, 1022.484 570.567, 1013.999 542.510 C 1005.635 514.853, 978.958 421.330, 970.496 390 C 967.896 380.375, 963.543 364.400, 960.823 354.500 C 958.102 344.600, 953.401 327.275, 950.376 316 C 924.755 220.495, 909.509 178.459, 887.090 141.500 C 873.001 118.273, 867.243 111.323, 853.484 100.936 C 847.112 96.126, 844.084 93.134, 843.231 90.805 C 841.727 86.703, 832.899 79.268, 821.225 72.271 C 816.375 69.364, 811.809 65.832, 810.945 64.318 C 809.849 62.399, 804.973 59.297, 794.445 53.820 C 753.668 32.610, 716.472 21.463, 666.500 15.476 C 654.101 13.990, 608.927 12.775, 597 13.607 M 589.445 95.447 C 554.293 99.675, 525.490 107.904, 496.500 122.001 C 464.437 137.592, 446.989 151.857, 431.064 175.498 C 395.444 228.378, 374.968 292.971, 367.031 377.500 C 366.205 386.294, 364.715 415.769, 363.922 439 L 363.802 442.500 362.389 438 C 360.389 431.631, 356.343 407.917, 354.538 391.981 C 347.385 328.826, 350.683 266.464, 364.955 195 C 366.547 187.025, 368.116 178.700, 368.441 176.500 L 369.031 172.500 365.600 176.319 C 355.621 187.426, 337.491 241.765, 332.566 275.327 C 330.026 292.640, 328.925 323.508, 330.025 346.605 C 332.509 398.792, 340.681 440.975, 358.870 495.500 C 363.766 510.176, 365.347 516.639, 367.431 530.500 C 370.639 551.833, 372.763 568.381, 372.359 568.893 C 371.048 570.550, 358.616 552.216, 351.749 538.500 C 330.459 495.977, 317.096 438.661, 310.890 363.250 C 310.199 354.863, 309.324 348, 308.944 348 C 307.309 348, 300.783 363.790, 296.123 379.018 C 291.520 394.063, 263.334 492.388, 254.706 523.500 C 247.129 550.824, 223.655 633.400, 217.894 653 C 204.692 697.912, 180.455 778.632, 174.406 797.836 C 170.883 809.020, 168 818.797, 168 819.561 C 168 821.379, 166.220 822.115, 208.032 803.002 C 279.892 770.152, 318.207 751.945, 331 744.571 C 358.164 728.911, 402.817 705, 404.895 705 C 405.412 705, 407.500 710.062, 409.535 716.250 C 414.374 730.962, 424.565 756.754, 430.844 770.181 C 452.306 816.077, 479.718 850.008, 513.875 872.960 C 560.116 904.033, 626.346 910.661, 680.730 889.658 C 739.335 867.024, 776.020 822.333, 803.167 740.500 C 807.106 728.626, 815 699.280, 815 696.510 C 815 695.721, 815.939 692.565, 817.087 689.498 C 818.918 684.604, 819.436 684.003, 821.312 684.599 C 822.488 684.972, 837.411 693.025, 854.475 702.494 C 891.831 723.225, 903.245 729.428, 930 743.544 C 951.230 754.744, 1064.632 811.579, 1071.250 814.336 C 1074.741 815.790, 1075 815.778, 1075 814.165 C 1075 813.212, 1073.158 807.273, 1070.908 800.966 C 1041.057 717.326, 983.494 524.091, 959.061 425.500 C 954.154 405.700, 948.046 380.725, 945.488 370 C 942.930 359.275, 940.423 350.073, 939.918 349.550 C 939.358 348.971, 938.999 352.091, 938.996 357.550 C 938.984 389.402, 933.291 437.009, 926.008 466.161 C 914.603 511.814, 894.163 555.432, 871.224 583.067 C 863.305 592.608, 854.833 600.497, 853.207 599.844 C 852.736 599.655, 853.604 594.325, 855.137 588 C 859.025 571.955, 865.384 540.675, 868.860 520.500 C 877.635 469.571, 878.400 460.553, 878.454 407.500 C 878.501 361.551, 878.074 353.424, 873.925 321.182 C 870.035 290.957, 862.679 261.810, 852.626 236.784 C 839.140 203.214, 825.073 181.985, 799.049 155.934 C 787.186 144.058, 781.011 138.740, 773 133.501 C 746.712 116.309, 709.122 102.782, 671.407 96.940 C 653.676 94.194, 606.941 93.343, 589.445 95.447 M 604 104.093 C 562.985 107.627, 521.204 121.102, 494 139.572 C 479.367 149.506, 475.524 153.302, 484.918 148.542 C 495.502 143.178, 517.152 135.313, 514.500 137.794 C 513.950 138.309, 507.430 142.198, 500.011 146.438 C 465.229 166.313, 446.304 185.441, 423.765 223.500 C 420.182 229.550, 415.676 237.650, 413.751 241.500 C 410.310 248.382, 405 262.127, 405 264.151 C 405 265.843, 417.845 258.326, 427.500 250.984 C 432.450 247.220, 443.671 237.313, 452.437 228.968 C 485.460 197.528, 511.440 179.845, 535.500 172.430 L 543.500 169.964 537.917 170.471 C 526.248 171.531, 503.188 179.804, 489.994 187.663 C 486.663 189.647, 483.726 191.059, 483.467 190.801 C 483.209 190.542, 486.457 187.746, 490.685 184.588 C 498.810 178.520, 516.453 169.429, 526.500 166.134 C 554.663 156.898, 581.002 159.990, 612 176.172 C 624.838 182.873, 649.935 199.188, 648.263 199.746 C 647.670 199.943, 641.855 198.447, 635.342 196.421 C 628.829 194.395, 621.025 192.166, 618 191.469 C 614.975 190.771, 608 189.049, 602.500 187.644 C 597 186.238, 589.575 184.622, 586 184.052 C 578.320 182.827, 556 182.645, 556 183.807 C 556 184.250, 559.121 185.362, 562.935 186.278 C 570.337 188.054, 589.324 195.009, 588.640 195.693 C 588.415 195.918, 580.780 195.612, 571.673 195.011 C 546.976 193.384, 530.523 195.319, 518.500 201.268 C 498.527 211.149, 484.661 226.701, 463.017 263.500 C 454.329 278.272, 441.876 295.625, 433.032 305.285 C 430.119 308.466, 427.919 311.252, 428.142 311.476 C 428.366 311.699, 430.526 310.996, 432.943 309.914 C 435.361 308.832, 437.735 308.078, 438.220 308.240 C 438.704 308.401, 437.207 311.451, 434.892 315.017 C 430.197 322.248, 424.635 332.968, 425.256 333.589 C 425.477 333.811, 428.215 332.608, 431.339 330.916 C 434.463 329.224, 437.479 327.993, 438.041 328.180 C 438.603 328.368, 435.647 333.016, 431.473 338.510 C 419.432 354.361, 412 372.212, 412 385.285 L 412 390.250 415.250 389.567 C 433.387 385.755, 458.656 384.836, 484.500 387.047 C 495.175 387.961, 527.088 392.407, 531 393.525 C 531.825 393.761, 533.163 393.538, 533.974 393.030 C 535.213 392.253, 535.054 391.686, 532.974 389.470 C 528.465 384.667, 496.504 367.978, 483 363.376 C 475.943 360.971, 458.290 360.933, 449.543 363.304 C 446.266 364.192, 443.403 364.736, 443.180 364.513 C 442.319 363.652, 449.814 359.859, 456.342 357.852 C 462.317 356.016, 464.913 355.811, 476.842 356.236 C 498.491 357.008, 522.451 363.199, 543.500 373.462 C 557.234 380.157, 559.405 382.043, 558.325 386.344 C 556.928 391.909, 557.675 396.775, 560.649 401.498 C 563.811 406.517, 574.203 415.351, 579.598 417.605 C 585.578 420.104, 601.875 421.988, 617.563 421.994 L 632.626 422 635.563 418.907 C 638.875 415.418, 644.563 412.320, 653.771 408.987 C 657.837 407.515, 661.089 405.524, 663.021 403.324 C 666.087 399.832, 666.425 398.490, 666.050 391.314 C 665.842 387.349, 666.045 387.018, 669.876 385.063 C 672.100 383.928, 678.326 381.892, 683.710 380.537 C 713.171 373.126, 743.134 371.162, 760.177 375.527 C 767.870 377.497, 779.889 383.115, 782.441 385.935 C 784.854 388.601, 783.665 388.537, 775.807 385.579 C 750.119 375.910, 725.777 378.759, 695.841 394.936 C 683.291 401.719, 683.461 401.999, 700.128 402.009 C 743.281 402.035, 785.084 408.376, 809.972 418.670 C 819.652 422.674, 831.835 425.962, 837.072 425.985 C 841.740 426.005, 849.349 423.377, 851.497 421.003 C 853.114 419.217, 852.781 418.231, 844.698 400.813 C 835.114 380.158, 831.903 371.683, 828.483 358 C 824.744 343.041, 823.868 333.958, 825.011 322 C 827.004 301.166, 827.292 290.424, 826.086 281.925 C 823.317 262.409, 816.110 246.166, 804.388 233.018 C 797.667 225.481, 794.970 223.231, 786.141 217.798 L 778.500 213.096 778.421 189.298 C 778.378 176.209, 777.974 163.987, 777.524 162.137 C 776.916 159.641, 775.850 158.417, 773.385 157.387 C 771.558 156.624, 769.671 156, 769.190 156 C 767.723 156, 766.153 162.868, 764.504 176.500 C 763.062 188.420, 760.623 200.710, 759.470 201.863 C 758.885 202.448, 759.226 202.936, 753.985 194 C 748.441 184.548, 736.003 171.904, 725.500 165.041 C 717.452 159.783, 697.267 149.400, 696.528 150.138 C 696.310 150.356, 699.365 153.085, 703.316 156.203 C 711.070 162.320, 718.645 169.688, 717.923 170.410 C 717.677 170.656, 714.106 168.792, 709.988 166.268 C 698.906 159.475, 669.575 146.091, 668.383 147.283 C 668.150 147.517, 669.656 148.843, 671.730 150.231 C 673.803 151.619, 680.450 157.203, 686.500 162.640 C 692.550 168.076, 703.575 177.888, 711 184.442 C 718.425 190.997, 724.636 196.686, 724.802 197.085 C 725.242 198.143, 718.332 196.436, 709.871 193.396 C 700.280 189.950, 690.223 184.868, 670.291 173.395 C 661.365 168.256, 652.585 163.413, 650.780 162.632 C 648.976 161.851, 644.800 160.003, 641.500 158.526 C 634.377 155.337, 634.974 156.044, 645.117 162.804 C 653.468 168.371, 666.850 178.887, 669.084 181.640 C 670.738 183.678, 671.501 184.068, 659 176.477 C 636.048 162.539, 618.443 154.220, 604.018 150.498 C 573.866 142.717, 546.539 144.981, 514.894 157.882 C 508.352 160.549, 503.003 162.454, 503.007 162.116 C 503.027 160.477, 521.846 148.325, 532.500 143.071 C 551.990 133.459, 568.129 129.294, 589.819 128.279 C 603.146 127.656, 604.552 126.121, 592 125.897 C 587.875 125.824, 583.150 125.445, 581.500 125.056 L 578.500 124.349 582.500 123.243 C 596.393 119.402, 625.480 118.511, 642 121.421 C 675.072 127.247, 700.461 137.841, 728 157.306 C 744.482 168.955, 749.074 172, 750.159 172 C 750.686 172, 749.629 169.188, 747.810 165.750 C 745.688 161.741, 741.195 156.179, 735.278 150.238 C 725.684 140.606, 725.963 140.528, 740 148.918 C 744.675 151.712, 748.865 153.999, 749.312 153.999 C 750.766 154.001, 743.758 145.073, 737.974 139.556 C 710.903 113.736, 657.171 99.513, 604 104.093 M 484.487 165.110 C 477.158 169.758, 462.182 182.049, 456.431 188.135 C 453.643 191.086, 449.210 196.424, 446.580 199.998 C 440.505 208.251, 427.543 229.876, 428.247 230.581 C 428.760 231.093, 447.614 209.174, 461.004 192.500 C 464.537 188.100, 472.565 179.438, 478.843 173.250 C 485.122 167.063, 490.063 162, 489.825 162 C 489.587 162, 487.184 163.400, 484.487 165.110 M 782.504 172.250 C 781.724 183.848, 783.255 200.659, 785.483 204.967 C 787.127 208.146, 793.015 212.667, 803.908 219.115 C 807.983 221.527, 812.933 225.468, 814.908 227.872 C 816.884 230.277, 823.848 237.643, 830.384 244.240 L 842.267 256.236 841.804 250.656 C 841.283 244.362, 836.614 234.055, 829.439 223.355 C 824.570 216.094, 824.282 215.213, 826.500 214.362 C 828.538 213.580, 828.351 210.370, 825.961 205.104 C 822.981 198.534, 815.136 188.002, 812.468 186.988 C 811.178 186.497, 808.593 183.712, 806.724 180.798 C 803.460 175.711, 792.873 165.563, 788.316 163.155 C 783.650 160.688, 783.237 161.334, 782.504 172.250 M 836.784 297.800 C 836.293 318.271, 835.574 323.559, 833.844 319.434 C 832.454 316.118, 833.991 328.829, 836.609 342.291 C 837.977 349.326, 840.687 359.653, 842.632 365.240 C 848.498 382.094, 861.808 407, 864.948 407 C 866.762 407, 867.287 397.256, 866.699 374.525 C 866.031 348.717, 864.453 334.937, 859.996 315.982 C 856.189 299.794, 856.274 300, 853.393 300 C 851.581 300, 850.998 299.454, 850.990 297.750 C 850.973 293.859, 846.412 285.671, 841.761 281.182 L 837.287 276.865 836.784 297.800 M 712 334.611 C 701.519 336.596, 699 337.241, 699 337.937 C 699 338.654, 752.019 340.125, 752.847 339.431 C 753.037 339.271, 750.112 338.169, 746.347 336.983 C 741.269 335.382, 736.271 334.736, 727 334.482 C 720.125 334.293, 713.375 334.351, 712 334.611 M 398.723 380.691 C 395.052 386.797, 391 394.545, 391 395.460 C 391 396.617, 398.253 395.920, 401.001 394.500 L 403.903 392.999 403.313 384.250 C 402.988 379.437, 402.609 375.361, 402.470 375.191 C 402.330 375.022, 400.644 377.497, 398.723 380.691 M 437.990 394.521 C 433.309 395.251, 426.784 396.853, 423.490 398.081 C 405.948 404.617, 402.388 411.193, 403.272 435.421 C 403.849 451.218, 405.332 458.021, 410.510 468.629 C 415.909 479.691, 423.663 485.667, 439.699 491.126 C 455.870 496.632, 469.531 498.410, 496 498.458 C 522.180 498.505, 525.876 497.958, 538 492.250 C 553.013 485.182, 566.500 467.474, 566.500 454.830 C 566.500 447.874, 564.521 445.352, 557.900 443.870 C 555.480 443.329, 549.363 440.467, 544.307 437.509 C 539.251 434.552, 535.358 432.769, 535.656 433.546 C 535.954 434.323, 537.624 435.841, 539.366 436.917 C 543.440 439.435, 547.538 443.795, 546.658 444.675 C 546.283 445.050, 543.619 444.645, 540.738 443.774 C 537.857 442.903, 533.768 441.893, 531.650 441.531 C 528.537 440.998, 527.893 440.516, 528.286 439.014 C 528.776 437.141, 526.073 434.027, 521.027 430.653 C 517.639 428.388, 516.004 428.581, 515.977 431.250 C 515.964 432.488, 514.726 435.743, 513.227 438.485 C 510.845 442.840, 509.995 443.559, 506.500 444.177 C 499.531 445.410, 488.126 445.079, 484.436 443.538 C 480.636 441.950, 477.063 435.815, 477.022 430.809 C 476.991 426.954, 475.712 426.638, 470.030 429.083 C 464.500 431.462, 464.069 432.196, 465.484 436.849 C 466.080 438.813, 465.894 439.112, 464.349 438.673 C 457.202 436.647, 456.070 436.777, 452.862 439.984 C 450.712 442.134, 448.582 443.214, 446.110 443.408 C 444.125 443.563, 438.619 444.854, 433.876 446.276 C 422.738 449.616, 418 450.496, 418 449.224 C 418 448.674, 420.946 446.973, 424.546 445.443 C 428.146 443.913, 431.312 442.305, 431.581 441.869 C 431.850 441.433, 430.142 440.099, 427.785 438.904 C 421.325 435.629, 415 430.840, 415 429.223 C 415 428.433, 415.563 428.034, 416.250 428.336 C 425.887 432.581, 431.366 434.408, 435.544 434.773 C 440.410 435.198, 440.798 435.034, 446.544 430.120 C 461.067 417.700, 481.809 411.886, 504.039 414.004 C 516.101 415.153, 521.764 417.116, 533.949 424.373 C 539.145 427.468, 544.417 430, 545.663 430 C 551.460 430, 550.332 421.279, 543.675 414.623 C 537.153 408.103, 520.928 401.102, 503.838 397.435 C 483.918 393.160, 454.938 391.878, 437.990 394.521 M 707.500 412.561 C 685.634 416.636, 674.069 422.024, 669.977 430.045 C 668.813 432.327, 668.118 434.865, 668.432 435.684 C 669.261 437.843, 675.679 436.539, 685.496 432.218 C 696.836 427.226, 702.168 426.025, 713.060 426.012 C 731.399 425.989, 750.919 433.201, 765.133 445.252 C 769.330 448.811, 774.280 452.257, 776.133 452.910 C 781.558 454.823, 790.872 455.158, 800 453.767 L 808.500 452.472 808.814 447.518 C 809.208 441.295, 807.571 434.551, 804.546 429.928 C 800.392 423.583, 785.074 417.004, 766 413.374 C 753.836 411.059, 718.219 410.564, 707.500 412.561 M 500 425.393 C 500 427.347, 502.773 428.192, 505.100 426.946 C 507.715 425.547, 506.581 424, 502.941 424 C 501.094 424, 500 424.518, 500 425.393 M 384.964 428.750 C 382.895 435.620, 382.569 461.429, 384.425 471.500 C 385.785 478.883, 390.473 495.548, 391.549 496.830 C 391.702 497.011, 392.991 496.397, 394.413 495.465 C 397.582 493.389, 397.583 493.595, 394.463 503.363 C 387.557 524.991, 389.070 549.946, 399.409 584.886 C 402.395 594.978, 402.920 598.400, 403.413 611 C 405.384 661.346, 425.352 719.219, 448.091 740.488 C 454.187 746.190, 464.033 750.998, 469.615 750.999 C 476.042 751, 478.415 748.482, 479.920 740.060 C 480.614 736.175, 481.997 731.990, 482.994 730.760 L 484.805 728.523 486.300 732.011 C 487.123 733.930, 489.206 739.976, 490.929 745.446 C 506.163 793.797, 542.650 816.012, 606.801 815.996 C 643.595 815.987, 665.331 807.778, 686.661 785.838 C 695.370 776.880, 703.236 765.420, 706.930 756.309 C 712.517 742.530, 713.280 741, 714.574 741 C 717.266 741, 718.347 747.830, 717.043 756.596 C 715.650 765.961, 716.567 769.464, 721 771.706 C 729.596 776.054, 748.234 768.132, 761.697 754.408 C 785.442 730.203, 811.922 681.665, 828.964 631.107 C 831.706 622.972, 834.628 613.658, 835.458 610.408 C 836.287 607.159, 838.960 596.850, 841.397 587.500 C 846.937 566.244, 849.589 550.650, 851.020 530.912 C 851.776 520.490, 853.066 511.777, 855.005 504 C 858.592 489.618, 861 473.486, 861 463.845 C 861 455.213, 859.231 439.852, 858.107 438.715 C 857.056 437.653, 849.255 441.097, 842.787 445.478 C 839.879 447.447, 833.789 450.197, 829.253 451.589 C 823.747 453.278, 820.648 454.789, 819.928 456.135 C 819.335 457.243, 817.082 463.589, 814.923 470.237 C 807.357 493.529, 800.276 503.867, 787.083 510.883 C 772.715 518.523, 753.693 521.522, 724.579 520.736 C 693.244 519.889, 673.483 514.569, 657.247 502.607 C 652.653 499.222, 650.076 498, 647.532 498 C 643.636 498, 642 495.993, 642 491.212 C 642 489.606, 640.037 484.064, 637.638 478.896 C 631.705 466.118, 630.144 460.966, 628.606 449.092 C 626.666 434.108, 623.717 432, 604.692 432 C 590.377 432, 588.813 433.911, 587.602 452.875 C 587.111 460.582, 586.356 463.786, 583.360 470.875 C 576.325 487.527, 570.187 507.197, 568.532 518.388 C 567.647 524.376, 566.420 530.215, 565.805 531.364 C 564.726 533.380, 564.650 533.387, 563.594 531.572 C 561.379 527.765, 556.749 523, 555.264 523 C 552.104 523, 547.249 527.126, 544.528 532.125 C 542.494 535.863, 541.576 539.197, 541.223 544.124 C 540.585 553.041, 542.027 555.458, 548.519 556.347 C 555.453 557.298, 565.763 563.209, 574.913 571.481 C 583.646 579.376, 589.090 582, 596.735 582 C 603.648 582, 609.064 580.197, 615 575.920 C 623.586 569.733, 635.695 564.167, 644.500 562.360 C 657.453 559.702, 660.036 554.488, 656.103 538.934 C 654.951 534.382, 654.251 530.416, 654.545 530.121 C 655.728 528.939, 660.471 533.146, 673.012 546.500 C 687.411 561.832, 696.381 572.697, 708.515 589.500 C 717.863 602.445, 731.048 616.489, 739.571 622.581 C 742.911 624.968, 746.185 628.110, 746.847 629.564 C 747.982 632.055, 747.742 632.506, 742.708 637.354 C 737.488 642.380, 729.789 654.998, 726.908 663.250 C 723.775 672.221, 723.132 664.556, 725.462 646 L 726.905 634.500 721.092 629.295 C 712.862 621.924, 701.646 604.968, 687.492 578.500 C 676.826 558.556, 669.365 547, 667.153 547 C 666.761 547, 666.345 549.515, 666.227 552.590 C 665.766 564.696, 659.611 571.589, 646.693 574.470 C 634.472 577.194, 630.182 578.936, 627.943 582.080 C 626.796 583.691, 623.488 586.130, 620.591 587.500 C 617.581 588.924, 614.861 591.010, 614.242 592.368 C 612.789 595.557, 605.737 598.821, 596.276 600.684 C 587.137 602.483, 582.819 601.706, 575.905 597.021 C 573.482 595.380, 570.600 594.023, 569.500 594.007 C 566.534 593.964, 558.863 591.480, 553.881 588.949 C 548.514 586.221, 533.951 572.223, 529.748 565.750 C 528.051 563.138, 526.327 561, 525.915 561 C 524.729 561, 512.179 575.265, 508.187 581.151 C 506.192 584.093, 500.946 592.784, 496.530 600.464 C 489.013 613.537, 488.155 614.622, 483.096 617.464 C 474.557 622.261, 473.845 623.760, 473.122 638.451 L 472.500 651.081 465.528 637.290 C 461.694 629.706, 458.514 623.396, 458.463 623.269 C 458.412 623.141, 454.981 622.389, 450.839 621.596 C 441.945 619.895, 437.268 618.069, 432.516 614.444 C 429.458 612.112, 425 606.324, 425 604.686 C 425 604.368, 427.363 604.830, 430.250 605.712 C 437.883 608.045, 450 607.755, 458 605.048 C 466.160 602.287, 477.032 595.587, 485.989 587.802 C 497.085 578.157, 525.490 542.916, 531.057 531.887 C 533.839 526.376, 535.403 525, 538.886 525 C 539.833 525, 542.158 523.369, 544.054 521.375 C 545.949 519.381, 549.856 516.222, 552.735 514.354 C 555.615 512.486, 558.678 509.590, 559.542 507.919 C 560.818 505.451, 564.895 489.585, 564.978 486.764 C 564.990 486.359, 560.764 488.880, 555.586 492.366 C 537.909 504.268, 524.462 507.492, 492.500 507.492 C 469.943 507.492, 461.826 506.478, 444.500 501.495 C 426.925 496.440, 411.382 487.387, 406.071 479.111 C 401.076 471.327, 397.141 459.008, 394.603 443.211 C 392.632 430.944, 391.904 428.341, 390.019 426.814 C 386.867 424.262, 386.245 424.500, 384.964 428.750 M 724.188 438.739 C 724.591 440.828, 727.764 441.636, 729.348 440.052 C 730.195 439.205, 730.105 438.677, 728.992 437.974 C 726.478 436.384, 723.816 436.808, 724.188 438.739 M 697 439.935 C 695.625 440.355, 692.582 441.678, 690.238 442.876 C 686.618 444.725, 686.064 445.407, 686.564 447.401 C 687.122 449.620, 686.836 449.780, 681.327 450.319 C 678.122 450.633, 673.250 451.210, 670.500 451.602 C 666.021 452.240, 665.636 452.150, 666.804 450.739 C 667.522 449.873, 671.023 447.266, 674.584 444.945 C 678.146 442.625, 680.912 440.579, 680.731 440.398 C 680.551 440.217, 677.500 441.243, 673.952 442.677 C 670.403 444.111, 664.547 445.609, 660.939 446.006 C 646.084 447.639, 640.099 454.712, 643.012 467.193 C 649.585 495.362, 672.837 509.277, 719.691 513.082 C 743.906 515.049, 767.789 511.880, 781.756 504.845 C 793.714 498.823, 800.478 488.730, 805.494 469.425 C 808.085 459.456, 808.542 455.970, 807.250 456.041 C 806.837 456.063, 802.339 457.100, 797.254 458.344 L 788.008 460.607 793.254 462.938 C 800.964 466.365, 797.079 466.558, 783.847 463.406 C 777.606 461.920, 770.121 460.503, 767.213 460.257 C 762.489 459.858, 761.992 459.600, 762.553 457.834 C 762.943 456.604, 762.495 455.100, 761.369 453.856 C 759.786 452.106, 758.809 451.942, 753.585 452.548 L 747.612 453.241 749.347 450.592 C 751.331 447.565, 750.959 446.538, 747.187 444.620 C 742.169 442.068, 740 441.720, 740 443.466 C 740 444.346, 738.851 447.335, 737.446 450.107 C 734.042 456.823, 730.306 458.449, 720 457.698 C 708.892 456.888, 706.555 455.755, 703.549 449.723 C 702.147 446.909, 701 443.346, 701 441.804 C 701 438.818, 700.866 438.755, 697 439.935 M 510.500 466.129 C 499.074 468.535, 493.046 469.189, 477.716 469.687 C 464.749 470.108, 459.037 470.638, 459.271 471.398 C 459.920 473.512, 466.608 475.956, 476.160 477.570 C 484.949 479.055, 486.696 479.060, 496.346 477.638 C 502.156 476.781, 510.417 474.904, 514.705 473.466 C 522.988 470.689, 533 465.469, 533 463.927 C 533 462.302, 524.909 463.094, 510.500 466.129 M 672 470.392 C 672 472.796, 684.793 480.699, 694.300 484.169 C 707.628 489.033, 729.476 490.027, 741.315 486.309 C 743.963 485.477, 745.976 484.642, 745.787 484.454 C 745.599 484.266, 741.407 483.629, 736.472 483.039 C 722.834 481.409, 703.792 477.402, 691.061 473.484 C 676.046 468.863, 672 468.206, 672 470.392 M 497.680 628.896 C 495.030 629.287, 492.417 630.258, 491.875 631.054 C 491.275 631.935, 491.120 637.581, 491.479 645.500 C 492.014 657.307, 490.285 680.319, 488.416 686.250 C 488.113 687.212, 488.284 688, 488.796 688 C 491.188 688, 498.492 666.672, 501.040 652.250 C 502.486 644.063, 503.295 643.570, 508.215 647.873 C 522.027 659.955, 533.632 665.657, 555 670.860 C 576.797 676.168, 588.138 677.463, 612.500 677.428 C 649.501 677.374, 667.204 672.737, 689.335 657.301 C 693.644 654.295, 697.368 652.035, 697.611 652.277 C 697.853 652.520, 698.729 656.944, 699.556 662.109 C 701.085 671.647, 704.846 685.051, 707.523 690.500 L 708.997 693.500 708.521 689 C 708.260 686.525, 707.530 679.550, 706.899 673.500 C 706.269 667.450, 705.986 658.197, 706.272 652.938 C 706.557 647.680, 706.383 642.648, 705.884 641.757 C 705.379 640.855, 702.657 639.681, 699.739 639.107 C 691.287 637.446, 656.935 635.816, 622.500 635.443 C 602.692 635.228, 585.547 634.522, 577.500 633.589 C 548.308 630.204, 505.763 627.703, 497.680 628.896 M 529.678 640.656 C 527.889 642.444, 529.195 646.797, 532.475 649.975 C 535.213 652.629, 536.893 653.397, 540.397 653.594 C 543.273 653.757, 545.560 654.560, 546.868 655.868 C 549.103 658.103, 557.768 661, 562.217 661 C 563.786 661, 566.067 661.634, 567.285 662.408 C 570.752 664.613, 580.159 666.144, 589.738 666.061 C 594.557 666.020, 601.650 666.402, 605.500 666.911 C 613.229 667.932, 624.393 667.306, 627.500 665.676 C 628.600 665.099, 632.724 664.598, 636.665 664.563 C 642.359 664.513, 644.427 664.059, 646.736 662.353 C 649.043 660.647, 650.575 660.310, 654.175 660.716 C 658.098 661.158, 659.031 660.884, 661.104 658.679 C 662.574 657.116, 664.841 656.009, 666.969 655.815 C 670.778 655.469, 673.849 651.655, 672.710 648.685 C 672.146 647.218, 668.262 647.066, 633.292 647.149 C 603.632 647.219, 591.675 646.876, 582.500 645.690 C 556.578 642.341, 550.101 641.730, 547.029 642.344 C 545.273 642.695, 543.086 642.597, 542.168 642.125 C 539.846 640.932, 530.501 639.832, 529.678 640.656 M 586.309 708.433 C 579.761 709.932, 573 712.737, 573 713.955 C 573 714.355, 582.128 714.977, 593.285 715.337 C 604.441 715.697, 617.829 716.247, 623.035 716.560 L 632.500 717.129 629 714.030 C 627.075 712.326, 623.250 710.253, 620.500 709.424 C 613.264 707.242, 593.960 706.682, 586.309 708.433 M 763 772.013 C 748.577 786.611, 734.654 798.201, 721.142 806.856 C 712.017 812.701, 702.204 817.537, 701.301 816.634 C 700.441 815.774, 703.400 811.647, 713.680 799.371 C 718.806 793.250, 723 787.962, 723 787.621 C 723 787.279, 718.837 787.010, 713.750 787.022 C 702.689 787.048, 698.741 788.538, 690.878 795.655 C 674.956 810.064, 658.950 820.492, 644.493 825.874 C 628.001 832.014, 621.673 835.557, 613.952 842.979 C 605.099 851.487, 600.728 853.387, 591.302 852.827 C 581.185 852.226, 574.849 848.863, 563.542 838.092 C 553.385 828.415, 548.457 824.902, 534.810 817.606 C 519.879 809.624, 510.559 802.048, 493.457 783.992 C 486.718 776.876, 484.325 775.054, 478.688 772.750 C 474.988 771.237, 471.346 770, 470.594 770 C 467.773 770, 477.082 800.180, 484.574 815.325 C 490.306 826.912, 494.178 832.039, 504.909 842.251 C 523.193 859.651, 544.789 870.554, 573 876.629 C 579.825 878.098, 586.032 878.463, 604.500 878.479 C 631.471 878.504, 639.718 877.309, 661.398 870.240 C 703.938 856.368, 739.562 827.393, 763.811 786.942 C 769.180 777.987, 777.369 760.480, 776.819 759.133 C 776.644 758.702, 770.425 764.498, 763 772.013" stroke="none" fill="#ffd700" fill-rule="evenodd"/>
</g></g></svg>
